<?xml version="1.0" encoding="UTF-8"?>
<!DOCTYPE svg PUBLIC "-//W3C//DTD SVG 1.1//EN" "http://www.w3.org/Graphics/SVG/1.1/DTD/svg11.dtd">
<!-- Creator: CorelDRAW 2021 (64 Bit) -->
<svg xmlns="http://www.w3.org/2000/svg" xml:space="preserve" width="600px" height="420px" version="1.1" style="shape-rendering:geometricPrecision; text-rendering:geometricPrecision; image-rendering:optimizeQuality; fill-rule:evenodd; clip-rule:evenodd"
viewBox="0 0 600 420"
 xmlns:xlink="http://www.w3.org/1999/xlink"
 xmlns:xodm="http://www.corel.com/coreldraw/odm/2003">
 <defs>
  <style type="text/css">
   <![CDATA[
    .fil2 {fill:black}
    .fil1 {fill:#ED1C24}
    .fil0 {fill:white}
   ]]>
  </style>
 </defs>
 <g id="Camada_x0020_1">
  <metadata id="CorelCorpID_0Corel-Layer"/>
  <g id="_3115381174528">
   <path class="fil0" d="M-0.23 0.06l600 0 0 420 -600 0 0 -420zm300 97.07l60 103.93 60 103.92 -120 0 -120 0 60 -103.92 60 -103.93zm39.21 220.25l-13.98 0 0 6.08 9.77 0 0 2.4 -9.77 0 0 6.72 13.98 0 0 2.4 -16.38 0 0 -20 16.38 0 0 2.4zm-102.21 17.6l0 -17.6 -8.15 0 0 -2.4 9.35 0 1.2 0 8.15 0 0 2.4 -8.15 0 0 17.6 -2.4 0zm27.19 -17.08l-4.2 9.31 8.39 0 -4.19 -9.31zm-1.32 -2.92l1.32 0 1.31 0 9.01 20 -2.63 0 -2.42 -5.37 -10.55 0 -2.42 5.37 -2.62 0 9 -20zm21.91 20l0 -20 1.65 0 11.66 10.26 11.65 -10.26 1.65 0 0 20 -2.4 0 0 -16.14 -10.9 9.6 -0.81 -0.72 -0.01 0.01 -9.61 -8.48 -0.48 -0.41 0 16.14 -2.4 0zm65.35 0l0 -20 1.68 0 16.94 16.1 0 -16.1 2.4 0 0 20 -1.77 0 -16.85 -16.01 0 16.01 -2.4 0zm-11.9 -200.82c-1.2,0.69 -2.38,0.72 -3.4,0.42 -0.58,-0.16 -1.1,-0.44 -1.55,-0.76l-0.07 0.4 -2.36 -0.42 0.45 -2.45 -2.25 -3.9c-0.42,-0.73 -0.85,-2.19 -0.54,-3.6 0.23,-1.03 0.82,-2.02 2.03,-2.72l10.18 -5.88c0.9,-0.51 1.95,-0.65 2.94,-0.36 0.9,0.26 1.73,0.86 2.29,1.83l3.68 6.37 0.31 0.53 -0.04 0.02c0.3,0.74 0.39,1.56 0.23,2.32 -0.19,0.91 -0.72,1.74 -1.67,2.29l-10.23 5.91zm-3.51 -8.23l-0.9 4.97 0.14 0.26c0.22,0.37 0.79,0.91 1.53,1.12 0.46,0.13 0.99,0.12 1.54,-0.2l10.23 -5.91c0.3,-0.17 0.47,-0.42 0.53,-0.7 0.07,-0.36 -0.02,-0.79 -0.23,-1.16l-0.01 -0.02 -3.68 -6.37c-0.23,-0.4 -0.54,-0.64 -0.88,-0.74 -0.35,-0.1 -0.73,-0.04 -1.07,0.15l-10.18 5.88c-0.54,0.31 -0.79,0.73 -0.89,1.16 -0.16,0.74 0.06,1.5 0.28,1.88l0.84 1.45 0.4 -2.2 2.35 0.43zm68.12 94.13l-5.76 -9.99 -5.26 3.04 3.99 6.92 -2.08 1.2 -3.99 -6.92 -5.83 3.36 5.77 9.99 -2.08 1.2 -6.97 -12.07 17.33 -10 6.96 12.07 -2.08 1.2zm9.27 16.05l-4.42 -7.65 -5.26 3.04 4.42 7.65c0.18,0.31 0.52,0.53 0.89,0.64 0.39,0.11 0.78,0.1 1.04,-0.05l2.79 -1.61 0 0 0 0c0.33,-0.19 0.59,-0.5 0.7,-0.86 0.11,-0.35 0.08,-0.76 -0.15,-1.16l-0.01 0.01 2.08 -1.21 -2.08 1.2zm2.08 -1.2l0 0.01c0.59,1.02 0.66,2.1 0.37,3.05 -0.29,0.94 -0.94,1.74 -1.79,2.23l0 0 -0.01 0 -2.78 1.61c-0.84,0.48 -1.92,0.56 -2.89,0.28 -0.94,-0.27 -1.81,-0.86 -2.32,-1.74l-0.32 -0.56 -5.6 8.55 -1.34 -2.32 5.6 -8.55 -2.76 -4.77 -7.9 4.56 -1.2 -2.08 17.32 -10 5.62 9.73zm6.3 17.24l-9.71 1.32 3.71 6.42 6 -7.74zm-19.31 0.23l1.29 2.23 5.75 -0.79 4.68 8.12 -3.55 4.59 1.29 2.23 13.23 -17.07 -0.64 -1.12 -0.65 -1.12 -21.4 2.93zm-18.93 -51.03l-3.25 -5.63c-0.5,-0.87 -0.62,-1.91 -0.42,-2.84 0.22,-0.98 0.78,-1.86 1.62,-2.35l2.99 -1.72c0.9,-0.52 1.95,-0.65 2.93,-0.37 0.91,0.26 1.74,0.87 2.3,1.84l3.68 6.36 0.3 0.54 -0.03 0.02c0.29,0.74 0.39,1.55 0.23,2.31 -0.19,0.92 -0.72,1.75 -1.67,2.3l-0.28 0.16 -1.2 -2.08 0.28 -0.16c0.3,-0.18 0.47,-0.43 0.52,-0.7 0.08,-0.37 -0.01,-0.79 -0.22,-1.17l-0.01 -0.02 -3.68 -6.36c-0.23,-0.4 -0.55,-0.64 -0.88,-0.74 -0.35,-0.1 -0.73,-0.05 -1.07,0.15l-2.99 1.72c-0.24,0.14 -0.41,0.43 -0.48,0.77 -0.08,0.38 -0.04,0.8 0.16,1.14l3.25 5.63 0 0 0.03 0.06 0.02 0.01c0.45,0.79 0.72,1.93 0.59,3.04 -0.14,1.17 -0.7,2.33 -1.92,3.09l-0.11 0.06 -0.01 0.02 -2.23 1.28c-1.2,0.7 -2.38,0.72 -3.41,0.43 -1.4,-0.41 -2.51,-1.48 -2.94,-2.23l-2.83 -4.9c-0.42,-0.74 -0.85,-2.2 -0.54,-3.6 0.23,-1.03 0.82,-2.03 2.02,-2.72l0.36 -0.21 1.2 2.08 -0.36 0.21c-0.53,0.31 -0.79,0.73 -0.88,1.16 -0.17,0.73 0.06,1.5 0.28,1.88l2.83 4.9c0.21,0.37 0.78,0.91 1.53,1.13 0.46,0.13 0.99,0.11 1.54,-0.2l2.23 -1.29 0 0 0.06 -0.03c0.5,-0.31 0.74,-0.82 0.8,-1.34 0.07,-0.59 -0.07,-1.17 -0.29,-1.56l0 0 -0.03 -0.06 1.02 -0.61 -1.04 0.6zm-16.31 -43.69l-9.71 1.32 3.71 6.42 6 -7.74zm-19.32 0.23l1.29 2.23 5.75 -0.78 4.69 8.11 -3.56 4.59 1.29 2.23 5.48 9.48 2.07 -1.2 -5.96 -10.33 4.45 -5.74 3.65 6.31 2.08 -1.2 -4.14 -7.16 4.02 -5.19 5.55 9.61 2.07 -1.2 -6.03 -10.45 -0.65 -1.12 -0.64 -1.12 -21.41 2.93zm2.21 -5.38c-1.2,0.69 -2.38,0.72 -3.41,0.42 -1.4,-0.4 -2.51,-1.48 -2.94,-2.22l-2.83 -4.9c-0.43,-0.74 -0.85,-2.2 -0.54,-3.61 0.23,-1.02 0.82,-2.02 2.02,-2.71l13.47 -7.78 1.2 2.08 -13.47 7.78c-0.53,0.3 -0.79,0.73 -0.88,1.16 -0.17,0.73 0.06,1.49 0.28,1.88l2.83 4.9c0.21,0.37 0.78,0.91 1.53,1.12 0.45,0.14 0.99,0.12 1.54,-0.2l13.34 -7.7 1.2 2.08 -13.34 7.7zm-137.22 42.53l-5.77 9.98 5.26 3.04 4 -6.92 2.08 1.2 -4 6.92 5.83 3.36 5.76 -9.98 2.08 1.2 -6.96 12.06 -17.32 -10 6.96 -12.06 2.08 1.2zm10.22 -17.71l-4.41 7.65 5.26 3.04 4.42 -7.66c0.17,-0.31 0.2,-0.71 0.1,-1.08 -0.1,-0.39 -0.3,-0.73 -0.57,-0.88l-2.78 -1.61 0 0 0 0c-0.33,-0.2 -0.73,-0.26 -1.1,-0.18 -0.35,0.09 -0.69,0.32 -0.92,0.71l0.01 0 -2.08 -1.19 0 0c0.59,-1.03 1.49,-1.63 2.46,-1.85 0.95,-0.22 1.97,-0.06 2.83,0.44l0 -0.01 0 0.01 2.78 1.61c0.84,0.48 1.45,1.38 1.69,2.36 0.24,0.94 0.16,2 -0.35,2.87l-0.32 0.56 10.2 0.58 -1.34 2.32 -10.2 -0.57 -2.76 4.77 7.91 4.56 -1.2 2.08 -17.32 -10 5.62 -9.73 2.07 1.2zm-24.21 41.93l-3.99 6.92 5.26 3.04 4 -6.92c0.17,-0.3 0.17,-0.7 0.07,-1.09l0 0c-0.12,-0.42 -0.34,-0.78 -0.62,-0.95l-2.59 -1.49c-0.37,-0.21 -0.83,-0.28 -1.24,-0.18 -0.35,0.09 -0.67,0.3 -0.89,0.67zm7.34 4.24l-3.99 6.92 5.82 3.36 4 -6.92c0.31,-0.55 0.52,-1.23 0.38,-1.84 -0.11,-0.44 -0.41,-0.87 -1.03,-1.23l-2.16 -1.25c-0.62,-0.33 -1.18,-0.47 -1.65,-0.37 -0.44,0.1 -0.87,0.46 -1.27,1.15l-0.1 0.18zm7.91 4.56l-5.2 9 -17.32 -10 5.2 -9c0.56,-0.98 1.43,-1.56 2.38,-1.79 1.02,-0.26 2.14,-0.09 3.02,0.42l2.59 1.5c0.69,0.39 1.24,1.09 1.56,1.88 0.23,-0.1 0.46,-0.18 0.71,-0.23 1.06,-0.24 2.18,0 3.3,0.59l0.23 0.13 2 1.15c1.27,0.74 1.92,1.72 2.16,2.77 0.29,1.28 -0.06,2.58 -0.63,3.58zm-27.55 7.71l17.32 10 -1.2 2.08 -17.32 -10 1.2 -2.08zm-11.37 19.69l15.24 8.8 6.03 -10.43 2.07 1.2 -7.22 12.51 -17.32 -10 1.2 -2.08zm72.03 -84.76l-15.24 -8.8 -3.11 5.39 -2.08 -1.2 3.71 -6.43 0.6 -1.04 3.11 -5.38 2.08 1.2 -3.11 5.38 15.24 8.8 -1.2 2.08zm-3.46 -27.69l6 7.74 3.71 -6.41 -9.71 -1.33zm9.86 16.61l1.29 -2.23 -3.56 -4.59 4.69 -8.11 5.75 0.78 1.29 -2.23 -21.41 -2.93 -0.64 1.12 -0.65 1.12 13.24 17.07zm9.96 -35.51l-3.25 5.64c-0.5,0.86 -1.34,1.48 -2.25,1.77 -0.95,0.31 -1.99,0.26 -2.84,-0.23l-2.99 -1.72c-0.89,-0.52 -1.53,-1.37 -1.78,-2.36 -0.23,-0.91 -0.12,-1.93 0.44,-2.9l3.68 -6.37 0.31 -0.53 0.03 0.02c0.5,-0.63 1.15,-1.12 1.89,-1.36 0.89,-0.29 1.87,-0.25 2.82,0.3l0.28 0.16 -1.2 2.08 -0.28 -0.16c-0.3,-0.18 -0.6,-0.19 -0.87,-0.1 -0.35,0.11 -0.67,0.4 -0.89,0.77l-0.01 0.02 -3.68 6.37c-0.23,0.4 -0.28,0.79 -0.2,1.13 0.09,0.35 0.33,0.66 0.66,0.85l2.99 1.73c0.24,0.14 0.58,0.14 0.91,0.03 0.37,-0.12 0.71,-0.37 0.9,-0.7l3.26 -5.64 0 0 0.03 -0.06 0.01 -0.01c0.45,-0.79 1.3,-1.59 2.33,-2.03 1.08,-0.47 2.37,-0.56 3.64,0.12l0.11 0.06 0.02 0 2.22 1.29c1.2,0.69 1.82,1.7 2.07,2.73 0.35,1.42 -0.02,2.92 -0.45,3.66l-2.83 4.91c-0.43,0.73 -1.48,1.84 -2.85,2.27 -1.01,0.31 -2.17,0.3 -3.37,-0.4l-0.36 -0.2 1.2 -2.08 0.36 0.2c0.53,0.31 1.03,0.32 1.45,0.19 0.72,-0.22 1.27,-0.8 1.49,-1.18l2.83 -4.91c0.21,-0.37 0.39,-1.13 0.21,-1.88 -0.12,-0.46 -0.4,-0.92 -0.95,-1.23l-2.22 -1.29 0 0 -0.06 -0.04c-0.52,-0.28 -1.08,-0.23 -1.56,-0.02 -0.54,0.23 -0.98,0.64 -1.2,1.03l-0.01 -0.01 -0.03 0.06 -1.05 -0.58 1.04 0.6z"/>
   <polygon class="fil1" points="299.77,97.13 359.77,201.06 419.77,304.98 299.77,304.98 179.77,304.98 239.77,201.06 "/>
   <g>
    <path class="fil2" d="M338 134.16c-1.2,0.69 -2.38,0.72 -3.4,0.42 -0.58,-0.16 -1.1,-0.44 -1.55,-0.76l-0.07 0.4 -2.36 -0.42 0.45 -2.45 -2.25 -3.9c-0.42,-0.73 -0.85,-2.19 -0.54,-3.6 0.23,-1.03 0.82,-2.02 2.03,-2.72l10.18 -5.88c0.9,-0.51 1.95,-0.65 2.94,-0.36 0.9,0.26 1.73,0.86 2.29,1.83l3.68 6.37 0.31 0.53 -0.04 0.02c0.3,0.74 0.39,1.56 0.23,2.32 -0.19,0.91 -0.72,1.74 -1.67,2.29l-10.23 5.91zm-3.51 -8.23l-0.9 4.97 0.14 0.26c0.22,0.37 0.79,0.91 1.53,1.12 0.46,0.13 0.99,0.12 1.54,-0.2l10.23 -5.91c0.3,-0.17 0.47,-0.42 0.53,-0.7 0.07,-0.36 -0.02,-0.79 -0.23,-1.16l-0.01 -0.02 -3.68 -6.37c-0.23,-0.4 -0.54,-0.64 -0.88,-0.74 -0.35,-0.1 -0.73,-0.04 -1.07,0.15l-10.18 5.88c-0.54,0.31 -0.79,0.73 -0.89,1.16 -0.16,0.74 0.06,1.5 0.28,1.88l0.84 1.45 0.4 -2.2 2.35 0.43z"/>
    <g>
     <polygon class="fil2" points="402.61,220.06 396.85,210.07 391.59,213.11 395.58,220.03 393.5,221.23 389.51,214.31 383.68,217.67 389.45,227.66 387.37,228.86 380.4,216.79 397.73,206.79 404.69,218.86 "/>
     <path class="fil2" d="M411.88 236.11l-4.42 -7.65 -5.26 3.04 4.42 7.65c0.18,0.31 0.52,0.53 0.89,0.64 0.39,0.11 0.78,0.1 1.04,-0.05l2.79 -1.61 0 0 0 0c0.33,-0.19 0.59,-0.5 0.7,-0.86 0.11,-0.35 0.08,-0.76 -0.15,-1.16l-0.01 0.01 2.08 -1.21 -2.08 1.2zm2.08 -1.2l0 0.01c0.59,1.02 0.66,2.1 0.37,3.05 -0.29,0.94 -0.94,1.74 -1.79,2.23l0 0 -0.01 0 -2.78 1.61c-0.84,0.48 -1.92,0.56 -2.89,0.28 -0.94,-0.27 -1.81,-0.86 -2.32,-1.74l-0.32 -0.56 -5.6 8.55 -1.34 -2.32 5.6 -8.55 -2.76 -4.77 -7.9 4.56 -1.2 -2.08 17.32 -10 5.62 9.73z"/>
     <path class="fil2" d="M420.26 252.15l-9.71 1.32 3.71 6.42 6 -7.74zm-19.31 0.23l1.29 2.23 5.75 -0.79 4.68 8.12 -3.55 4.59 1.29 2.23 13.23 -17.07 -0.64 -1.12 -0.65 -1.12 -21.4 2.93z"/>
     <path class="fil2" d="M382.02 201.35l-3.25 -5.63c-0.5,-0.87 -0.62,-1.91 -0.42,-2.84 0.22,-0.98 0.78,-1.86 1.62,-2.35l2.99 -1.72c0.9,-0.52 1.95,-0.65 2.93,-0.37 0.91,0.26 1.74,0.87 2.3,1.84l3.68 6.36 0.3 0.54 -0.03 0.02c0.29,0.74 0.39,1.55 0.23,2.31 -0.19,0.92 -0.72,1.75 -1.67,2.3l-0.28 0.16 -1.2 -2.08 0.28 -0.16c0.3,-0.18 0.47,-0.43 0.52,-0.7 0.08,-0.37 -0.01,-0.79 -0.22,-1.17l-0.01 -0.02 -3.68 -6.36c-0.23,-0.4 -0.55,-0.64 -0.88,-0.74 -0.35,-0.1 -0.73,-0.05 -1.07,0.15l-2.99 1.72c-0.24,0.14 -0.41,0.43 -0.48,0.77 -0.08,0.38 -0.04,0.8 0.16,1.14l3.25 5.63 0 0 0.03 0.06 0.02 0.01c0.45,0.79 0.72,1.93 0.59,3.04 -0.14,1.17 -0.7,2.33 -1.92,3.09l-0.11 0.06 -0.01 0.02 -2.23 1.28c-1.2,0.7 -2.38,0.72 -3.41,0.43 -1.4,-0.41 -2.51,-1.48 -2.94,-2.23l-2.83 -4.9c-0.42,-0.74 -0.85,-2.2 -0.54,-3.6 0.23,-1.03 0.82,-2.03 2.02,-2.72l0.36 -0.21 1.2 2.08 -0.36 0.21c-0.53,0.31 -0.79,0.73 -0.88,1.16 -0.17,0.73 0.06,1.5 0.28,1.88l2.83 4.9c0.21,0.37 0.78,0.91 1.53,1.13 0.46,0.13 0.99,0.11 1.54,-0.2l2.23 -1.29 0 0 0.06 -0.03c0.5,-0.31 0.74,-0.82 0.8,-1.34 0.07,-0.59 -0.07,-1.17 -0.29,-1.56l0 0 -0.03 -0.06 1.02 -0.61 -1.04 0.6z"/>
     <path class="fil2" d="M365.71 157.66l-9.71 1.32 3.71 6.42 6 -7.74zm-19.32 0.23l1.29 2.23 5.75 -0.78 4.69 8.11 -3.56 4.59 1.29 2.23 5.48 9.48 2.07 -1.2 -5.96 -10.33 4.45 -5.74 3.65 6.31 2.08 -1.2 -4.14 -7.16 4.02 -5.19 5.55 9.61 2.07 -1.2 -6.03 -10.45 -0.65 -1.12 -0.64 -1.12 -21.41 2.93z"/>
     <path class="fil2" d="M348.6 152.51c-1.2,0.69 -2.38,0.72 -3.41,0.42 -1.4,-0.4 -2.51,-1.48 -2.94,-2.22l-2.83 -4.9c-0.43,-0.74 -0.85,-2.2 -0.54,-3.61 0.23,-1.02 0.82,-2.02 2.02,-2.71l13.47 -7.78 1.2 2.08 -13.47 7.78c-0.53,0.3 -0.79,0.73 -0.88,1.16 -0.17,0.73 0.06,1.49 0.28,1.88l2.83 4.9c0.21,0.37 0.78,0.91 1.53,1.12 0.45,0.14 0.99,0.12 1.54,-0.2l13.34 -7.7 1.2 2.08 -13.34 7.7z"/>
    </g>
   </g>
   <g>
    <polygon class="fil2" points="211.38,195.04 205.61,205.02 210.87,208.06 214.87,201.14 216.95,202.34 212.95,209.26 218.78,212.62 224.54,202.64 226.62,203.84 219.66,215.9 202.34,205.9 209.3,193.84 "/>
    <path class="fil2" d="M221.6 177.33l-4.41 7.65 5.26 3.04 4.42 -7.66c0.17,-0.31 0.2,-0.71 0.1,-1.08 -0.1,-0.39 -0.3,-0.73 -0.57,-0.88l-2.78 -1.61 0 0 0 0c-0.33,-0.2 -0.73,-0.26 -1.1,-0.18 -0.35,0.09 -0.69,0.32 -0.92,0.71l0.01 0 -2.08 -1.19 0 0c0.59,-1.03 1.49,-1.63 2.46,-1.85 0.95,-0.22 1.97,-0.06 2.83,0.44l0 -0.01 0 0.01 2.78 1.61c0.84,0.48 1.45,1.38 1.69,2.36 0.24,0.94 0.16,2 -0.35,2.87l-0.32 0.56 10.2 0.58 -1.34 2.32 -10.2 -0.57 -2.76 4.77 7.91 4.56 -1.2 2.08 -17.32 -10 5.62 -9.73 2.07 1.2z"/>
    <path class="fil2" d="M197.39 219.26l-3.99 6.92 5.26 3.04 4 -6.92c0.17,-0.3 0.17,-0.7 0.07,-1.09l0 0c-0.12,-0.42 -0.34,-0.78 -0.62,-0.95l-2.59 -1.49c-0.37,-0.21 -0.83,-0.28 -1.24,-0.18 -0.35,0.09 -0.67,0.3 -0.89,0.67zm7.34 4.24l-3.99 6.92 5.82 3.36 4 -6.92c0.31,-0.55 0.52,-1.23 0.38,-1.84 -0.11,-0.44 -0.41,-0.87 -1.03,-1.23l-2.16 -1.25c-0.62,-0.33 -1.18,-0.47 -1.65,-0.37 -0.44,0.1 -0.87,0.46 -1.27,1.15l-0.1 0.18zm7.91 4.56l-5.2 9 -17.32 -10 5.2 -9c0.56,-0.98 1.43,-1.56 2.38,-1.79 1.02,-0.26 2.14,-0.09 3.02,0.42l2.59 1.5c0.69,0.39 1.24,1.09 1.56,1.88 0.23,-0.1 0.46,-0.18 0.71,-0.23 1.06,-0.24 2.18,0 3.3,0.59l0.23 0.13 2 1.15c1.27,0.74 1.92,1.72 2.16,2.77 0.29,1.28 -0.06,2.58 -0.63,3.58z"/>
    <polygon class="fil2" points="185.09,235.77 202.41,245.77 201.21,247.85 183.89,237.85 "/>
    <polygon class="fil2" points="173.72,255.46 188.96,264.26 194.99,253.83 197.06,255.03 189.84,267.54 172.52,257.54 "/>
    <polygon class="fil2" points="245.75,170.7 230.51,161.9 227.4,167.29 225.32,166.09 229.03,159.66 229.63,158.62 232.74,153.24 234.82,154.44 231.71,159.82 246.95,168.62 "/>
    <path class="fil2" d="M242.29 143.01l6 7.74 3.71 -6.41 -9.71 -1.33zm9.86 16.61l1.29 -2.23 -3.56 -4.59 4.69 -8.11 5.75 0.78 1.29 -2.23 -21.41 -2.93 -0.64 1.12 -0.65 1.12 13.24 17.07z"/>
    <path class="fil2" d="M262.11 124.11l-3.25 5.64c-0.5,0.86 -1.34,1.48 -2.25,1.77 -0.95,0.31 -1.99,0.26 -2.84,-0.23l-2.99 -1.72c-0.89,-0.52 -1.53,-1.37 -1.78,-2.36 -0.23,-0.91 -0.12,-1.93 0.44,-2.9l3.68 -6.37 0.31 -0.53 0.03 0.02c0.5,-0.63 1.15,-1.12 1.89,-1.36 0.89,-0.29 1.87,-0.25 2.82,0.3l0.28 0.16 -1.2 2.08 -0.28 -0.16c-0.3,-0.18 -0.6,-0.19 -0.87,-0.1 -0.35,0.11 -0.67,0.4 -0.89,0.77l-0.01 0.02 -3.68 6.37c-0.23,0.4 -0.28,0.79 -0.2,1.13 0.09,0.35 0.33,0.66 0.66,0.85l2.99 1.73c0.24,0.14 0.58,0.14 0.91,0.03 0.37,-0.12 0.71,-0.37 0.9,-0.7l3.26 -5.64 0 0 0.03 -0.06 0.01 -0.01c0.45,-0.79 1.3,-1.59 2.33,-2.03 1.08,-0.47 2.37,-0.56 3.64,0.12l0.11 0.06 0.02 0 2.22 1.29c1.2,0.69 1.82,1.7 2.07,2.73 0.35,1.42 -0.02,2.92 -0.45,3.66l-2.83 4.91c-0.43,0.73 -1.48,1.84 -2.85,2.27 -1.01,0.31 -2.17,0.3 -3.37,-0.4l-0.36 -0.2 1.2 -2.08 0.36 0.2c0.53,0.31 1.03,0.32 1.45,0.19 0.72,-0.22 1.27,-0.8 1.49,-1.18l2.83 -4.91c0.21,-0.37 0.39,-1.13 0.21,-1.88 -0.12,-0.46 -0.4,-0.92 -0.95,-1.23l-2.22 -1.29 0 0 -0.06 -0.04c-0.52,-0.28 -1.08,-0.23 -1.56,-0.02 -0.54,0.23 -0.98,0.64 -1.2,1.03l-0.01 -0.01 -0.03 0.06 -1.05 -0.58 1.04 0.6z"/>
   </g>
   <g>
    <polygon class="fil2" points="338.98,317.38 325,317.38 325,323.46 334.77,323.46 334.77,325.86 325,325.86 325,332.58 338.98,332.58 338.98,334.98 322.6,334.98 322.6,314.98 338.98,314.98 "/>
    <polygon class="fil2" points="236.77,334.98 236.77,317.38 228.62,317.38 228.62,314.98 237.97,314.98 239.17,314.98 247.32,314.98 247.32,317.38 239.17,317.38 239.17,334.98 "/>
    <path class="fil2" d="M263.96 317.9l-4.2 9.31 8.39 0 -4.19 -9.31zm-1.32 -2.92l1.32 0 1.31 0 9.01 20 -2.63 0 -2.42 -5.37 -10.55 0 -2.42 5.37 -2.62 0 9 -20z"/>
    <polygon class="fil2" points="284.55,334.98 284.55,314.98 286.2,314.98 297.86,325.24 309.51,314.98 311.16,314.98 311.16,334.98 308.76,334.98 308.76,318.84 297.86,328.44 297.05,327.72 297.04,327.73 287.43,319.25 286.95,318.84 286.95,334.98 "/>
    <polygon class="fil2" points="349.9,334.98 349.9,314.98 351.58,314.98 368.52,331.08 368.52,314.98 370.92,314.98 370.92,334.98 369.15,334.98 352.3,318.97 352.3,334.98 "/>
   </g>
  </g>
 </g>
</svg>
